<svg xmlns="http://www.w3.org/2000/svg" xml:space="preserve" style="enable-background:new 0 0 660 122" viewBox="0 0 660 122" fill="currentColor">
  <path d="M58.1 46.8c.1-6.3 1.9-10 8-10 4.9 0 6.9 2.9 6.9 7.3 0 5.6-1.2 6.6-7.8 8.4-6.1 1.6-14.2 3-19.6 5.9-5.4 3-8.9 10.1-8.9 18.6 0 15.7 7.2 22.2 19.4 22.2 7.3 0 14.2-3.8 17.1-10.3h.3c.1 2.8.4 5.8 1.2 8.4h21c-2.5-3.2-2.5-10.3-2.5-15.8V44.1c0-15.4-8-21.6-25.9-21.6-9 0-15.2 1.2-20.3 4.7-5.1 3.5-8.1 9.6-8.2 19.6h19.3zm-.4 28.1c0-4.1 1.1-6.4 3.4-8.1 2-1.6 5-1.8 11.9-5.4 0 3-.1 6.8-.1 12.8 0 7.3-4.2 10-8.8 10-4.2 0-6.4-3.5-6.4-9.3M139.3 97.4h21.1V1.1h-21.9v31.3h-.3c-3.6-7.8-10.3-9.8-16.3-9.8-18 0-21.2 16.3-21.2 39 0 27.2 7.8 37.8 22.5 37.8 9.7 0 14.2-5.8 15.8-10.8h.3v8.8zm-.4-36c0 14.2-1.4 22-7.8 22-8.2 0-8.5-11.2-8.5-22.9 0-13.2.4-22 8.4-22 7.3 0 7.9 9.9 7.9 22.9M227.9 97.4h-21v-8.6h-.3c-3.1 6.5-9.4 10.5-17.5 10.5-12.4 0-19.1-6.2-19.1-20.3V24.4h21.9v49.8c0 5.3 2.3 8.3 6.3 8.3 4.2 0 7.8-3.2 7.8-10.3V24.4h21.8v73zM238.1 1.1H260v96.3h-21.9V1.1zM275.5 39.5h-9V24.4h9V3h21.9v21.4h10.1v15.1h-10.1v36.8c0 5.1 1.9 6.7 7 6.7.9 0 2.2-.1 3.1-.2v14.6c-4.2.5-8.4.8-12.5.8-15.1 0-19.4-2.7-19.4-19.7v-39zM352.9 74.2c.2 3.2.4 6.1 1.5 8.2 1.2 2 3.2 3.4 6.8 3.4 5.1 0 7.8-3.3 7.8-7.4 0-3.4-1.6-6.6-8.4-8.9-18-6.1-26.6-9.6-26.6-25 0-14.6 10.3-22 27.8-22 20.5 0 26.4 10 26.4 20.5v2.5h-19.4v-1.4c0-6.3-2.6-8.1-7.2-8.1-5.8 0-7.4 2.8-7.4 6.7 0 12.9 34.9 4.3 34.9 32.7 0 14.7-9.9 23.9-27.9 23.9-19.6 0-27.8-7.3-27.8-21.8v-3.2l19.5-.1zM391.8 24.4h21.8l7.1 53.8h.2l8.2-53.8h23.5l7.7 53.8h.2l7.7-53.8h21l-15.8 73h-24.7l-7.9-53.8h-.3L432 97.4h-25l-15.2-73zM495.8 0h21.9v16.7h-21.9V0zm0 24.4h21.9v73h-21.9v-73zM527.6 24.4h21V33h.3c3.1-6.5 9.4-10.5 17.5-10.5 6.3 0 14.7 1.2 17.9 11.2 5.2-8.5 10-11.2 18.1-11.2 12.4 0 19 6.2 19 20.2v54.6h-21.9V47.6c0-5.3-2.3-8.4-6.3-8.4-4.2 0-7.8 3.3-7.8 10.4v47.7h-21.8V47.6c0-5.3-2.3-8.4-6.3-8.4-4.2 0-7.8 3.3-7.8 10.4v47.7h-21.8V24.4zM0 .9h34.1V16H20.2v90.9h13.9V122H0V.9zM626.5 106.9h13.9V16h-13.9V.9h34.1V122h-34.1v-15.1z"/>
</svg>
