<svg xmlns="http://www.w3.org/2000/svg" xml:space="preserve" style="enable-background:new 0 0 50 50" viewBox="0 0 50 50" fill="currentColor"><path d="M46 22.9c-2.6 3.9-6.8 6.1-11.4 6.1-2.3 0-4.4-.5-6.3-1.5-.4-.2-.9-.1-1 .3-.2.4-.1.9.3 1 1.9 1 4 1.5 6.3 1.7v15.9L29 39c-.2-.4-.7-.5-1.1-.2-.4.2-.5.7-.2 1.1l6.5 9.7c.6.7 1.4 0 1.4 0l6.5-9.7c.2-.4.2-.9-.2-1.1-.4-.2-.9-.2-1.1.2l-5 7.6v-16c4.8-.2 9.2-2.7 11.9-6.8.2-.4.2-.9-.2-1.1-.7-.2-1.2-.1-1.5.2zM49 17.7c-.4-.1-.9.2-1 .6-.2.6-.3 1.2-.5 1.8-.2.4.1.9.5 1 .6.2.9-.2 1-.5.2-.6.4-1.3.6-1.9.1-.4-.2-.9-.6-1zM34.7 0c-8.5 0-15.3 6.9-15.3 15.3 0 3 .9 6 2.6 8.5.2.2.6.6 1.1.2.4-.2.5-.7.2-1.1-1.5-2.3-2.3-4.8-2.3-7.6 0-7.6 6.1-13.7 13.7-13.7s13.7 6.1 13.7 13.7c0 .5.3.8.8.8s.8-.3.8-.8C50 6.9 43.1 0 34.7 0zM1 12.7c.5.1.9-.2 1-.6C3.5 6 9 1.6 15.3 1.6c2.3 0 4.4.5 6.3 1.5.4.2.9.1 1-.3.2-.4.1-.9-.3-1C20.2.6 17.8 0 15.3 0 8.2 0 2.1 4.8.4 11.8c-.1.4.2.9.6.9z"/><path d="M30.6 15.3c0-3-.9-6-2.6-8.5-.2-.4-.7-.5-1.1-.2s-.5.7-.2 1.1c1.5 2.3 2.3 4.8 2.3 7.6C29 22.9 22.9 29 15.3 29S1.6 22.9 1.6 15.3c0-.5-.3-.8-.8-.8s-.8.3-.8.8c0 8.1 6.5 14.8 14.5 15.2v8.1H8.9c-.5 0-.8.3-.8.8s.3.8.8.8h5.6v8.9c0 .5.3.8.8.8s.8-.3.8-.8v-8.9h5.6c.5 0 .8-.3.8-.8s-.3-.8-.8-.8h-5.6v-8.1c8.1-.3 14.5-7 14.5-15.2z"/></svg>
