<svg xmlns="http://www.w3.org/2000/svg" xml:space="preserve" style="enable-background:new 0 0 50 50" viewBox="0 0 50 50" fill="currentColor"><path d="M32.6 15.6c0-4.2-3.4-7.6-7.6-7.6s-7.6 3.4-7.6 7.6 3.4 7.6 7.6 7.6 7.6-3.4 7.6-7.6zm-13.5 0c0-3.3 2.7-5.9 5.9-5.9s5.9 2.7 5.9 5.9-2.7 5.9-5.9 5.9-5.9-2.6-5.9-5.9z"/><path d="M6.2 40.6c0 5.3 8.2 9.4 18.8 9.4s18.8-4.1 18.8-9.4c0-3.7-4.2-7-10.8-8.5 3.9-5.3 7.9-11.7 7.9-16.2C40.9 7.1 33.7 0 25 0S9.1 7.1 9.1 15.9c0 4.4 4 10.9 7.9 16.2-6.6 1.5-10.8 4.7-10.8 8.5zM25 1.7c7.8 0 14.2 6.4 14.2 14.2 0 6.9-11.4 20.2-14.2 23.4-2.8-3.2-14.2-16.4-14.2-23.4C10.8 8 17.2 1.7 25 1.7zm-6.9 31.8c3.2 4.1 6 7.3 6.3 7.6.2.2.4.3.6.3s.5-.1.6-.3c.3-.3 3.1-3.4 6.3-7.6 6.1 1.3 10.2 4.1 10.2 7.1 0 4.2-7.8 7.8-17.1 7.8S7.9 44.8 7.9 40.6c0-3 4.1-5.8 10.2-7.1z"/></svg>
