<svg xmlns="http://www.w3.org/2000/svg" xml:space="preserve" style="enable-background:new 0 0 50 50" viewBox="0 0 50 50" fill="currentColor"><path d="M49.9 16.4c-.9-2.5-5.6-3.3-13.1-2.2-3-3.2-7.2-5.1-11.8-5.1-8.4 0-15.2 6.5-15.9 14.7-6.6 3.7-9.8 7.3-9 9.8.6 1.9 3.4 2.7 7.2 2.7 1.8 0 3.8-.2 5.9-.5 3 3.3 7.3 5.2 11.8 5.2 8.3 0 15.2-6.4 15.9-14.7 1.2-.7 2.3-1.4 3.3-2 3.1-2.2 6.6-5.3 5.7-7.9zM25 10.1c4.4 0 8.4 1.9 11.1 4.9 0 .1.1.1.2.2.5.6.9 1.2 1.3 1.8 0 .1.1.1.1.1 1.1 1.8 1.9 3.8 2.1 6.1-3.5 2.1-8.2 4.2-13.4 6-5.6 1.9-10.5 3.1-14.2 3.6-1.4-2.3-2.1-5-2.1-7.7 0-8.3 6.7-15 14.9-15zm15.8 12.5c-.3-1.9-.9-3.8-1.9-5.4 4.1-.4 5.9.2 6.1.9.3.7-.7 2.2-4.2 4.5zM11.1 32.8c-3.6.4-5.9 0-6.2-.9-.2-.7.8-2.3 4.3-4.5.3 1.9 1 3.7 1.9 5.4zM25 39.9c-4 0-7.8-1.6-10.6-4.4 4.1-.7 8.7-1.9 13-3.4 4.5-1.6 8.8-3.4 12.3-5.3-.8 7.5-7.1 13.1-14.7 13.1zm18.6-16.5c-4.1 2.8-10 5.6-16.4 7.9-5.1 1.8-9.8 2.9-13.7 3.5h-.2c-6.9 1-11.5.4-12.2-1.5-.7-1.9 2.4-5 8-8.3v.1c0 .4 0 .9.1 1.3-3.9 2.4-5.6 4.4-5.1 5.9.4 1.2 2.2 1.7 4.7 1.7 1 0 2-.1 3.2-.2h.2c4.3-.5 9.6-1.9 14.7-3.6 5.4-1.9 10.3-4.1 13.8-6.2.1-.1.2-.1.3-.2 3.9-2.4 5.6-4.4 5.1-5.9-.6-1.9-4.5-1.9-7.7-1.5-.3-.4-.5-.8-.8-1.1 6.3-.8 10.7-.2 11.4 1.6.4 1.4-1.6 3.8-5.4 6.5z"/></svg>
