<svg xmlns="http://www.w3.org/2000/svg" xml:space="preserve" style="enable-background:new 0 0 50 50" viewBox="0 0 50 50" fill="currentColor"><path d="M29.8 38.8s-2.4 1-4.6 1c-1.9 0-3.7-1-3.7-1-.2-.1-.5 0-.6.2-.1.2-.1.5.2.6.1 0 2 1.1 4.2 1.1 2.3 0 4.8-1.1 4.9-1.1.2-.1.3-.4.2-.6-.1-.2-.4-.3-.6-.2zM15.1 32.7c-.2-.1-.5 0-.6.2-1.1 2.9-1.1 6.2-1.1 6.3 0 .2.2.4.4.4s.4-.2.4-.4c0 0 0-3.3 1.1-6 .2-.2.1-.4-.2-.5zM16.9 30.8c1.9-2 5-2.8 5-2.9.2-.1.4-.3.3-.5-.1-.2-.3-.4-.5-.3-.1 0-3.4 1-5.5 3.1-.2.2-.2.5 0 .6.1.1.2.1.3.1.2 0 .3 0 .4-.1zM37.1 34c-.2 0-.4.2-.4.4v2.8c0 .2.2.4.4.4s.4-.2.4-.4v-2.8c0-.2-.1-.4-.4-.4zM37.1 39.3c-.2 0-.4.2-.4.4v6.4c0 .2.2.4.4.4s.4-.2.4-.4v-6.4c0-.2-.1-.4-.4-.4zM7.4 31.6H6.3c-.2 0-.4.2-.4.4s.2.4.4.4h1.1c.2 0 .4-.2.4-.4s-.2-.4-.4-.4zM3.3 31.6H2.2c-.2 0-.4.2-.4.4s.2.4.4.4h1.1c.2 0 .4-.2.4-.4s-.1-.4-.4-.4zM4.8 29.1c-.2 0-.4.2-.4.4v1c0 .2.2.4.4.4s.4-.2.4-.4v-1c.1-.2-.1-.4-.4-.4zM4.8 33c-.2 0-.4.2-.4.4v.9c0 .2.2.4.4.4s.4-.2.4-.4v-.9c.1-.2-.1-.4-.4-.4zM48 39.9l-1-.4c-.2-.1-.5 0-.6.2-.1.2 0 .5.2.6l1 .4h.2c.2 0 .3-.1.4-.3.1-.2 0-.4-.2-.5zM44.4 38.8c.1-.2 0-.5-.2-.6l-1-.4c-.2-.1-.5 0-.6.2-.1.2 0 .5.2.6l1 .4h.2c.2.1.4 0 .4-.2zM46.8 37.2c.1-.2 0-.5-.2-.6-.2-.1-.5 0-.6.2l-.4.9c-.1.2 0 .5.2.6h.2c.2 0 .3-.1.4-.3l.4-.8zM45 40.2c-.2-.1-.5 0-.6.2l-.4.9c-.1.2 0 .5.2.6h.2c.2 0 .3-.1.4-.3l.4-.9c.1-.1 0-.4-.2-.5zM15.8 11.3c-.6 0-1.1.5-1.1 1.1s.5 1.1 1.1 1.1c.6 0 1.1-.5 1.1-1.1s-.5-1.1-1.1-1.1z"/><path d="M38.4 17.1c-1.7-2.4-5.1-3-7.5-1.4-1.3.8-2.1 2.1-2.5 3.5-.3 1.5 0 2.9.8 4.2.3.4.6.8 1 1.2v6.7c-1.2-.9-2.6-1.4-4-1.6v-21c1.1 1.6 2.8 2.5 4.7 2.5.6 0 1.1-.1 1.7-.3.9 0 1.8-.3 2.6-.8 1.1-.7 1.8-1.8 2.1-3 .3-1.2 0-2.5-.7-3.6-.3-.5-.7-.9-1.2-1.2-1.7-2.4-5.1-3-7.5-1.4-1.3.8-2.1 2.1-2.5 3.5-.1.6-.2 1.3-.1 1.9v23.3H25c-.4 0-.7 0-1.1.1V10.1c0-3.1-2.5-5.6-5.6-5.6-2.5 0-4.7 1.7-5.4 4.1-.5.7-.8 1.6-.8 2.6 0 2.6 2.2 4.8 4.8 4.8.6 0 1.2-.1 1.7-.3 1.8-.1 3.4-1.1 4.4-2.5v16.7c-3.9.9-6.8 4.4-6.8 8.5V43c0 2.2.8 4.2 2.3 5.8h.4c.1 0 .2 0 .3-.1.2-.2.4-.4.5-.6.7-.8 1.3-1.5 2.5-1.5s1.8.7 2.5 1.5c.7.9 1.6 1.9 3.2 1.9s2.5-1 3.2-1.9c.5-.6 1-1.2 1.7-1.4.1 0 .1-.1.2-.1l.1-.1c.5-1.1.8-2.3.8-3.6v-4.6c0-2.3-.9-4.5-2.6-6.2-.1-.1-.3-.2-.4-.4h.1v-6.5c.9.5 1.8.8 2.8.8.6 0 1.1-.1 1.7-.3.9 0 1.8-.3 2.6-.8 1.1-.7 1.8-1.8 2.1-3 .3-1.2 0-2.5-.7-3.6-.3-.4-.7-.8-1.1-1.2zM35.7 4c.6.9.8 1.9.5 2.9-.2 1-.8 1.9-1.7 2.4-.6.4-1.3.6-2.1.6h-.1c-1.3 0-2.5-.7-3.2-1.8-.6-.9-.8-1.9-.5-2.9.2-1 .8-1.9 1.7-2.4.6-.4 1.4-.6 2.1-.6.8 0 1.6.3 2.3.7l.1.1c.4.3.7.6.9 1zm-9.5.6c.3-1.2 1-2.3 2.1-3 1.4-.9 3.2-.9 4.6-.2h-.4c-.9 0-1.8.3-2.6.8-1.1.7-1.8 1.8-2.1 3-.3 1.2 0 2.5.7 3.6.4.6.9 1.1 1.6 1.5-1.3-.2-2.4-.9-3.2-2.1-.8-1.2-1-2.4-.7-3.6zM13 11.1c0-.8.2-1.5.6-2.1v-.1c.7-1 1.9-1.7 3.2-1.7 2.2 0 3.9 1.7 3.9 3.9 0 2.1-1.8 3.9-3.9 3.9-2.1 0-3.8-1.7-3.8-3.9zm7.7 2.9c.6-.8 1-1.8 1-2.9 0-2.6-2.2-4.8-4.8-4.8-.8 0-1.5.2-2.1.5.9-.9 2.1-1.5 3.5-1.5 2.4 0 4.4 1.9 4.7 4.2v1c-.2 1.5-1.1 2.8-2.3 3.5zm12.2 24.3v4.6c0 1.1-.2 2.1-.6 3.1-.1 0-.2.1-.3.1-.1 0-.2.1-.2.1-.1.1-.2.2-.3.2l-.2.2-.3.3-.1.1c-.1.2-.3.3-.4.5-.7.8-1.3 1.5-2.5 1.5s-1.8-.7-2.5-1.5c-.7-.9-1.6-1.9-3.2-1.9s-2.5 1-3.2 1.8l-.2.2c-1.1-1.4-1.7-3.1-1.7-4.9v-4.6c0-4.3 3.6-7.9 7.9-7.9 2.1 0 4.1.8 5.6 2.3 1.3 1.7 2.2 3.7 2.2 5.8zm-3-15.3c-.7-1-.9-2.3-.6-3.5.3-1.2 1-2.3 2.1-3 1.4-.9 3.2-.9 4.6-.2h-.4c-.9 0-1.8.3-2.6.8-1.1.7-1.8 1.8-2.1 3-.3 1.2 0 2.5.7 3.6.4.6.9 1.1 1.6 1.5-1.4-.4-2.6-1.1-3.3-2.2zm9.4-1.2c-.2 1-.8 1.9-1.7 2.4-.6.4-1.3.6-2.1.6h-.1c-1.3 0-2.5-.7-3.2-1.8-.6-.9-.8-1.9-.5-2.9.2-1 .8-1.9 1.7-2.4.6-.4 1.4-.6 2.1-.6.8 0 1.6.3 2.3.7l.1.1c.4.3.7.6.9 1 .6.8.8 1.9.5 2.9z"/><path d="M36.5 20.3c-.5.3-.7 1-.3 1.5.3.5 1 .6 1.5.3s.7-1 .3-1.5c-.3-.5-1-.6-1.5-.3zM33.5 5.4c-.5.3-.7 1-.3 1.5.3.5 1 .6 1.5.3s.7-1 .3-1.5c-.3-.4-1-.6-1.5-.3zM45.8 12.4c0-1.2-1-2.2-2.2-2.2-1.2 0-2.2 1-2.2 2.2s1 2.2 2.2 2.2c1.2 0 2.2-1 2.2-2.2zm-3.6 0c0-.7.6-1.4 1.4-1.4.8 0 1.4.6 1.4 1.4 0 .7-.6 1.4-1.4 1.4-.8-.1-1.4-.7-1.4-1.4z"/></svg>
