<svg xmlns="http://www.w3.org/2000/svg" xml:space="preserve" style="enable-background:new 0 0 50 50" viewBox="0 0 50 50" fill="currentColor"><path d="M25.3 15.3c4.4 2.3 8.2 4.2 8.2 9.4 0 3.6-1.9 6.8-5 8.6-.5.3-.6.9-.3 1.3.2.3.5.5.8.5.2 0 .4 0 .5-.1 1.8-1.1 5.9-4.3 5.9-10.3 0-6.4-4.7-8.8-9.2-11.2-5-2.6-9.8-5.1-9.8-12.6 0-.5-.4-1-1-1s-1 .4-1 1c.1 8.8 5.9 11.8 10.9 14.4z"/><path d="M28 11.1c-.5.3-.6.9-.3 1.3.2.3.5.4.8.4.2 0 .4-.1.5-.2 3-1.9 6.5-5 6.5-11.7 0-.5-.4-1-1-1s-1 .4-1 1c0 5.8-2.8 8.4-5.5 10.2zM15.5 50c.5 0 1-.4 1-1 0-5.7 2.8-8.3 5.6-10.1.4-.3.5-.9.2-1.4-.3-.4-.8-.5-1.2-.3-3 1.9-6.5 5-6.5 11.7-.1.7.3 1.1.9 1.1z"/><path d="M23.7 36.5c5 2.7 9.8 5.3 9.8 12.6 0 .5.4 1 1 1 .5 0 1-.4 1-1 0-8.4-5.7-11.5-10.8-14.3-4.4-2.4-8.2-4.4-8.2-9.5 0-3.6 1.9-6.8 5-8.6.5-.3.6-.9.4-1.3s-.9-.7-1.4-.4h-.1c-1.8 1.1-5.9 4.3-5.9 10.3 0 6.2 4.7 8.7 9.2 11.2zM18.6 3.5h13c.5 0 1-.4 1-1s-.4-1-1-1h-13c-.5 0-1 .4-1 1s.5 1 1 1zM30.3 7.5c0-.5-.4-1-1-1H21c-.5 0-1 .4-1 1s.4 1 1 1h8.3c.6 0 1-.4 1-1z"/><path d="M31.7 48.5c.5 0 1-.4 1-1s-.4-1-1-1h-13c-.5 0-1 .4-1 1s.4 1 1 1h13zM17.7 24.8c0 .5.4 1 1 1h13c.5 0 1-.4 1-1 0-.5-.4-1-1-1h-13c-.6 0-1 .5-1 1zM29.3 43.5c.5 0 1-.4 1-1s-.4-1-1-1H21c-.5 0-1 .4-1 1s.4 1 1 1h8.3zM21 30.7h8.3c.5 0 1-.4 1-1 0-.5-.4-1-1-1H21c-.5 0-1 .4-1 1s.5 1 1 1zM29.3 20.9c.5 0 1-.4 1-1s-.4-1-1-1H21c-.5 0-1 .4-1 1s.4 1 1 1h8.3z"/></svg>
